<?xml version="1.0" standalone="no"?>
<!DOCTYPE svg PUBLIC "-//W3C//DTD SVG 20010904//EN"
 "http://www.w3.org/TR/2001/REC-SVG-20010904/DTD/svg10.dtd">
<svg version="1.0" xmlns="http://www.w3.org/2000/svg"
 width="1080.000000pt" height="1080.000000pt" viewBox="0 0 1080.000000 1080.000000"
 preserveAspectRatio="xMidYMid meet">
<metadata>
Created by potrace 1.11, written by Peter Selinger 2001-2013
</metadata>
<g transform="translate(0.000000,1080.000000) scale(0.100000,-0.100000)"
fill="#000000" stroke="none">
<path d="M0 5400 l0 -5400 5400 0 5400 0 0 5400 0 5400 -5400 0 -5400 0 0
-5400z m3255 2419 c123 -13 292 -55 407 -102 227 -92 428 -259 559 -466 l37
-57 -46 -75 c-96 -156 -166 -351 -191 -533 -16 -112 -13 -352 5 -473 40 -274
90 -405 326 -863 52 -102 100 -209 107 -238 21 -98 -14 -197 -94 -271 -142
-131 -362 -139 -548 -21 l-47 30 0 -620 0 -620 -255 0 -254 0 -3 1418 c-3
1347 -4 1420 -22 1472 -25 75 -68 134 -113 156 -23 11 -67 20 -113 22 -63 3
-82 0 -120 -20 -53 -27 -102 -94 -121 -165 -10 -38 -14 -355 -16 -1465 l-4
-1418 -684 0 -685 0 0 1434 c0 1218 2 1452 15 1549 45 347 180 635 404 870
115 119 189 180 312 252 303 179 705 251 1144 204z m4350 0 c425 -41 835 -205
1156 -462 323 -260 548 -602 703 -1070 47 -142 93 -314 86 -319 -3 -2 -307 -2
-677 0 l-672 2 -39 84 c-57 122 -129 222 -222 309 -66 62 -103 88 -184 127
-152 73 -209 85 -416 85 -151 0 -185 -3 -252 -22 -164 -48 -283 -119 -403
-241 -139 -142 -211 -256 -246 -389 -30 -111 -30 -340 -1 -470 65 -287 240
-512 493 -633 208 -100 536 -108 756 -20 248 100 465 352 525 609 l11 51 665
0 665 0 -7 -57 c-14 -122 -60 -324 -106 -465 -113 -343 -268 -580 -576 -878
-167 -161 -282 -245 -464 -339 -614 -316 -1463 -320 -2082 -10 -198 99 -360
214 -520 367 l-97 94 30 60 c102 202 155 512 130 753 -29 273 -114 505 -303
830 -99 170 -121 216 -147 299 -42 137 -17 265 71 361 97 106 193 134 317 91
41 -14 76 -26 78 -26 1 0 4 185 5 412 l3 412 105 63 c138 84 420 222 544 268
332 122 678 162 1071 124z m-563 -2028 c-5 -75 22 -130 80 -168 54 -36 175
-45 229 -18 82 41 123 108 117 191 l-3 54 98 0 97 0 33 -45 c48 -69 66 -128
67 -222 0 -141 -47 -250 -154 -351 -143 -135 -352 -165 -536 -75 -69 33 -169
132 -204 201 -15 29 -34 80 -42 115 -31 118 -1 282 63 349 24 25 33 28 92 28
l66 0 -3 -59z"/>
</g>
</svg>
